<?xml version="1.0" encoding="utf-8"?>
<!-- Generator: Adobe Illustrator 22.1.0, SVG Export Plug-In . SVG Version: 6.00 Build 0)  -->
<svg version="1.1" id="Layer_1" xmlns="http://www.w3.org/2000/svg" xmlns:xlink="http://www.w3.org/1999/xlink" x="0px" y="0px"
	 viewBox="0 0 1000 1000" style="enable-background:new 0 0 1000 1000;" xml:space="preserve">
<g>
	<g transform="translate(0.000000,511.000000) scale(0.100000,-0.100000)">
		<path d="M2393.7,4241.2c-565-69-1095.5-321.3-1475.1-703c-353.6-351.5-621-864.8-739.6-1419C49.6,1526.1,79.8,918,265.2,340
			c60.4-191.9,401.3-854,472.4-946.7c32.3-43.1,39.4-57,1102.4,76.7c618.9,21.6,1112.2,93.7,1144.5,93.7c53.9,0,92.7,47.5,386,489.5
			l327.8,489.5l452.9-903.6c362.3-724.6,455-897.1,470.1-862.6c10.8,23.7,345,858.3,741.8,1852.5
			c399,994.2,731.1,1822.3,739.7,1837.4c15.1,28,983.4-1943,1212-2471.4c99.2-228.6,138-295.4,176.8-306.2
			c41-12.9,1720.1-170.8,1821.5-168.6c38.8,0,268.2,386.4,369.6,647.4c84.1,215.7,168.2,547.8,200.6,787.1
			c34.5,265.2,12.9,845.4-43.1,1112.8c-207,1013.6-825.9,1764-1690.7,2053c-284.7,97.1-513.3,131.6-856.2,131.6
			c-373.1-2.2-584.4-32.3-875.5-127.2c-358-118.6-621.1-271.7-890.6-519.7c-166.1-153.1-390.3-437.8-461.5-584.4
			c-25.9-51.8-49.6-92.7-56.1-92.7c-8.6,2.2-58.2,75.5-114.3,168.2c-347.2,573.6-907.9,966.1-1580.7,1106.3
			C3083.8,4252,2624.5,4271.4,2393.7,4241.2z"/>
		<path d="M6057.7,991.3c-45.3-103.5-383.9-869.1-754.8-1703.7l-672.8-1518.2c0,0,0,0,0,0l-53.9,116.5
			c-30.2,62.5-248,547.8-485.2,1078.3S3655.4-69.7,3648.9-69.7s-112.1-135.9-237.2-301.9l-226.4-299.8c0,0,0,0,0,0h-204.9
			c-112.1,0-664.2,17.2-1224.9,36.7c-558.6,19.4-1017.9,32.4-1017.9,28c0-23.7,226.4-321.3,390.3-508.9
			C1705.8-1788.5,2424-2347,3981-3336.8c295.5-187.6,647-422.7,782.8-519.7L4980-4040c190,183.3,560.1,390.5,1461.6,970.6
			C7586.7-2334.1,8300.5-1769.1,8803-1204.1c239.4,269.6,382.8,455.5,357,464.1c-10.8,2.1-789.6-56.5-1026.7-70l-997.3-6
			c0,0,0,0,0,0l-60.4,99.2C6976.4-561.4,6605.4,180.4,6379,670c-112.1,245.9-213.5,461.5-222.1,478.8
			C6144,1172.5,6113.7,1127.2,6057.7,991.3z"/>
	</g>
</g>
</svg>
